<?xml version="1.0" standalone="no"?>
<!DOCTYPE svg PUBLIC "-//W3C//DTD SVG 20010904//EN"
 "http://www.w3.org/TR/2001/REC-SVG-20010904/DTD/svg10.dtd">
<svg version="1.0" xmlns="http://www.w3.org/2000/svg"
 width="642.000000pt" height="642.000000pt" viewBox="0 0 642.000000 642.000000"
 preserveAspectRatio="xMidYMid meet">
<metadata>
Created by potrace 1.14, written by Peter Selinger 2001-2017
</metadata>
<g transform="translate(0.000000,642.000000) scale(0.100000,-0.100000)"
fill="#000000" stroke="none">
<path d="M3008 6405 c-1 -2 -39 -6 -83 -10 -44 -3 -96 -9 -115 -12 -19 -3 -44
-6 -55 -8 -11 -1 -42 -6 -70 -10 -27 -4 -70 -11 -95 -17 -25 -5 -58 -12 -75
-15 -146 -23 -465 -130 -645 -216 -47 -22 -87 -41 -90 -41 -27 -5 -312 -177
-391 -237 -26 -19 -58 -43 -73 -53 -15 -11 -36 -27 -46 -35 -10 -9 -33 -27
-49 -39 -70 -54 -124 -104 -266 -247 -166 -166 -219 -226 -338 -385 -31 -41
-60 -79 -65 -85 -12 -15 -136 -214 -158 -255 -10 -19 -21 -37 -24 -40 -24 -24
-158 -327 -201 -455 -17 -49 -33 -97 -36 -105 -3 -8 -7 -19 -8 -25 -2 -5 -8
-30 -15 -55 -7 -25 -12 -46 -12 -47 1 -2 -4 -17 -9 -35 -6 -18 -12 -42 -14
-53 -10 -44 -25 -122 -30 -152 -3 -18 -8 -48 -11 -65 -6 -34 -8 -55 -21 -173
-15 -136 -6 -664 11 -694 2 -3 7 -37 11 -76 4 -38 9 -73 11 -76 2 -4 6 -24 9
-44 2 -21 7 -45 9 -54 3 -9 7 -32 10 -51 3 -19 15 -69 26 -110 12 -41 23 -84
25 -94 14 -62 104 -316 117 -331 4 -5 8 -15 8 -23 0 -19 137 -302 158 -324 8
-10 12 -18 9 -18 -6 0 99 -170 154 -250 50 -73 162 -216 234 -300 46 -53 245
-250 299 -295 26 -22 55 -47 64 -56 51 -48 257 -193 400 -281 169 -104 498
-250 692 -308 41 -12 86 -26 100 -31 14 -5 36 -11 50 -13 14 -3 25 -5 25 -6 0
-1 10 -3 22 -6 12 -2 63 -13 113 -24 50 -11 107 -22 128 -25 65 -8 126 -17
152 -21 134 -22 770 -25 770 -3 0 3 10 5 23 5 12 1 42 4 67 8 25 4 54 9 65 10
36 5 99 18 160 33 33 8 69 17 81 19 112 21 506 169 576 216 14 10 30 18 34 18
21 0 406 236 424 260 3 3 32 26 65 51 33 24 66 49 73 56 7 7 34 29 60 50 95
76 432 422 432 444 0 5 4 9 9 9 12 0 164 202 236 314 72 111 95 153 142 246
21 41 41 77 44 80 13 12 135 310 144 353 2 9 7 23 12 30 4 6 9 18 10 24 6 28
10 39 21 73 6 19 13 46 16 60 2 14 14 63 26 110 12 47 24 99 26 115 2 17 6 41
9 55 11 54 20 125 32 250 15 152 8 580 -11 690 -3 14 -7 43 -10 65 -6 46 -13
86 -23 135 -4 19 -7 40 -8 45 -4 37 -79 315 -95 350 -7 16 -30 85 -35 105 -1
3 -6 16 -12 30 -6 14 -20 48 -31 75 -11 28 -35 82 -53 120 -18 39 -33 72 -34
75 -1 5 -9 21 -58 110 -55 100 -66 119 -109 187 -67 108 -176 257 -262 360
-130 156 -360 379 -501 486 -5 4 -28 21 -50 37 -22 16 -44 33 -50 38 -5 4 -53
35 -105 69 -52 35 -101 67 -107 73 -7 6 -13 8 -13 6 0 -3 -17 6 -37 20 -34 23
-253 133 -356 179 -61 27 -245 93 -277 100 -3 0 -36 10 -75 22 -38 12 -85 25
-104 28 -19 3 -38 8 -43 11 -5 3 -19 7 -31 9 -12 1 -56 10 -97 18 -41 9 -95
18 -120 21 -25 4 -62 8 -82 11 -21 3 -57 8 -80 11 -47 6 -524 15 -530 9z m338
-416 c3 -5 2 -8 -3 -7 -4 1 -24 -4 -43 -11 -19 -8 -39 -15 -45 -16 -5 -2 -62
-22 -125 -45 -63 -23 -119 -43 -125 -44 -5 -2 -19 -6 -30 -10 -11 -5 -26 -10
-33 -12 -24 -7 -6 -29 50 -59 73 -40 90 -53 115 -95 25 -41 24 -106 -1 -192
-9 -30 -17 -78 -19 -107 -2 -47 1 -57 29 -90 37 -42 82 -60 144 -55 50 4 66
14 144 87 73 70 205 136 303 151 7 1 16 5 19 9 4 4 14 7 21 7 27 0 176 80 237
127 34 25 81 71 106 101 25 31 56 66 69 79 25 24 82 40 103 29 49 -24 235
-128 441 -245 21 -12 71 -40 110 -62 40 -22 79 -47 87 -55 16 -17 14 -19 -75
-89 -52 -41 -63 -52 -78 -83 -18 -35 -14 -66 17 -142 34 -83 34 -120 -1 -154
-26 -26 -31 -27 -97 -21 -47 4 -77 12 -91 24 -11 10 -31 28 -45 40 -14 13 -40
34 -57 48 -30 23 -35 24 -55 10 -45 -29 -148 -139 -148 -157 0 -6 30 -42 68
-79 70 -71 109 -145 105 -204 -1 -33 -16 -46 -103 -87 -78 -38 -116 -72 -131
-117 -14 -43 -4 -114 22 -157 23 -38 25 -106 3 -149 -9 -18 -20 -34 -23 -37
-4 -3 -28 -33 -54 -67 -26 -34 -54 -68 -62 -76 -22 -23 -150 -218 -167 -257
-33 -73 -47 -110 -52 -142 -3 -18 -9 -46 -12 -63 -7 -28 -8 -129 -4 -185 10
-108 69 -232 146 -307 123 -117 250 -146 522 -118 104 10 152 1 199 -40 34
-29 49 -57 110 -212 93 -233 87 -216 102 -277 5 -22 8 -43 6 -46 -4 -6 -10
-56 -20 -165 -19 -209 -18 -247 13 -340 32 -96 108 -261 193 -415 73 -134 73
-142 1 -215 -32 -33 -87 -85 -122 -115 -35 -30 -79 -70 -99 -87 -20 -18 -40
-33 -44 -33 -4 0 -22 -13 -40 -30 -18 -16 -37 -30 -44 -30 -6 0 -13 -4 -15 -9
-2 -7 -37 -30 -194 -128 -10 -7 -62 -34 -114 -60 -52 -26 -96 -51 -98 -55 -2
-5 -10 -8 -17 -8 -7 0 -42 -13 -77 -28 -60 -28 -240 -91 -303 -107 -16 -5 -34
-9 -40 -11 -17 -5 -99 -25 -120 -30 -11 -2 -31 -6 -45 -9 -49 -10 -76 -15
-120 -21 -25 -3 -56 -7 -70 -10 -78 -13 -156 -17 -340 -18 -230 -1 -323 6
-510 35 -110 17 -125 20 -140 24 -8 2 -29 7 -47 10 -18 3 -43 9 -57 15 -15 5
-26 7 -26 5 0 -8 -66 29 -82 46 -40 40 -48 89 -24 155 33 94 277 569 317 618
21 25 79 119 79 126 0 5 3 10 8 12 4 2 24 28 45 58 20 30 47 66 60 80 12 14
33 41 47 60 13 19 27 37 31 40 16 11 63 87 85 136 21 47 34 99 39 149 1 11 4
27 7 35 3 8 15 45 27 83 12 37 34 95 50 130 61 133 71 198 36 251 -18 27 -93
79 -150 105 -96 42 -367 213 -421 265 -6 6 -25 22 -43 36 -18 14 -38 30 -45
37 -61 56 -346 213 -387 213 -8 0 -19 4 -24 8 -25 22 -140 44 -233 46 -78 1
-144 -16 -255 -67 -102 -48 -141 -33 -172 64 -9 30 -30 82 -46 117 -16 35 -29
67 -29 72 0 4 -3 10 -7 12 -5 2 -33 51 -63 111 -30 59 -59 107 -64 107 -6 0
-40 -18 -78 -41 -111 -67 -174 -51 -198 52 -20 83 10 199 66 255 22 22 104 77
104 70 0 -2 19 2 42 8 100 30 208 3 285 -69 29 -28 53 -56 53 -63 0 -26 19
-10 35 31 15 38 73 131 110 174 8 10 43 56 77 103 87 118 277 307 382 380 12
8 26 19 32 25 14 12 35 28 164 127 52 39 101 78 108 85 7 7 14 13 15 13 1 0
17 4 35 9 28 9 38 5 85 -26 44 -30 156 -78 162 -71 2 2 13 26 26 53 44 95 30
241 -35 343 -29 46 -109 132 -124 132 -4 0 -18 9 -31 21 l-22 21 100 50 c152
74 192 125 177 228 -19 140 -143 221 -336 221 -47 0 -94 -2 -105 -4 -87 -21
-121 -31 -130 -37 -8 -6 -188 -68 -220 -76 -11 -3 -78 -23 -180 -53 -38 -12
-83 -19 -98 -17 -28 4 -44 13 -36 19 10 8 145 93 160 102 194 111 490 232 639
261 14 3 33 7 42 10 10 3 28 7 40 9 13 2 37 7 53 10 17 4 46 8 65 11 19 2 45
6 57 9 12 3 55 8 95 11 40 4 74 8 76 9 9 8 413 2 418 -6z m2126 -1738 c53 -16
122 -41 153 -55 30 -15 63 -26 72 -26 37 0 -60 -72 -116 -86 -9 -2 -36 -8 -61
-14 -50 -13 -183 -17 -245 -8 -114 17 -236 65 -294 117 l-31 28 43 21 c52 26
127 53 127 46 0 -3 8 0 18 5 10 6 62 9 127 7 87 -3 130 -11 207 -35z m-4897
-596 c6 -5 18 -35 28 -65 29 -93 71 -128 222 -185 112 -42 191 -83 313 -162
45 -29 84 -53 87 -53 2 0 36 -22 77 -48 40 -27 113 -72 161 -101 131 -79 134
-102 35 -272 -69 -119 -88 -196 -74 -309 12 -108 114 -269 247 -392 50 -46
107 -110 129 -143 35 -54 97 -195 85 -195 -2 0 0 -11 5 -26 14 -35 26 -129 34
-274 6 -94 16 -211 21 -240 2 -14 7 -50 10 -80 3 -30 14 -98 25 -150 28 -130
26 -121 55 -213 26 -85 30 -147 9 -147 -7 0 -14 3 -16 8 -3 7 -44 35 -173 118
-33 21 -61 42 -63 46 -2 5 -8 8 -14 8 -8 0 -200 128 -243 162 -5 4 -39 31 -75
60 -36 29 -71 57 -78 63 -8 5 -75 71 -150 145 -270 265 -455 533 -602 870 -31
70 -117 314 -125 353 -2 9 -11 44 -19 78 -9 33 -18 75 -22 92 -3 18 -11 64
-19 102 -18 93 -27 160 -41 315 -8 84 -12 340 -6 353 2 4 5 40 7 79 2 39 7 89
11 112 4 22 8 48 9 56 0 8 12 34 25 57 l23 42 46 -27 c25 -14 51 -31 56 -37z"/>
</g>
</svg>
